<svg width="22" height="19" viewBox="0 0 22 19" fill="none" xmlns="http://www.w3.org/2000/svg">
<circle opacity="0.1" cx="11.073" cy="12.1529" r="6.56471" fill="#FE8C00"/>
<circle cx="3.76708" cy="7.17647" r="0.423529" fill="#B468FF"/>
<circle cx="11.7612" cy="2.57059" r="0.9" fill="#B468FF"/>
<circle cx="19.8612" cy="10.9882" r="0.847059" fill="#FE8C00"/>
<path d="M16.1553 1.45882L16.3757 2.08547L17.0024 2.30588L16.3757 2.5263L16.1553 3.15294L15.9349 2.5263L15.3083 2.30588L15.9349 2.08547L16.1553 1.45882Z" fill="#FB46FF"/>
<path d="M3.09509 9.24442C3.09509 9.24442 2.92077 9.94815 2.09514 9.97845C1.54472 9.99865 1.41523 9.42823 0.772252 9.81436C0.485905 9.98632 0.272964 10.5088 0.272964 10.5088" stroke="#FB46FF" stroke-width="0.317647" stroke-linecap="round"/>
<path d="M3.39649 13.3176L3.7023 14.1236L4.50826 14.4294L3.7023 14.7352L3.39649 15.5412L3.09069 14.7352L2.28473 14.4294L3.09069 14.1236L3.39649 13.3176Z" fill="#FE8C00"/>
<circle cx="10.7553" cy="1.24706" r="0.211765" fill="#FB46FF"/>
<path d="M4.11905 1.32777C4.22315 2.23264 6.32592 3.13453 6.37277 2.39422C6.44701 1.22108 3.61111 2.13576 7.48009 3.67306" stroke="#FE8C00" stroke-width="0.317647" stroke-linecap="round"/>
<path d="M19.6494 15.0975C20.1751 15.0229 21.3211 15.1486 21.7003 16.248" stroke="#B468FF" stroke-width="0.317647" stroke-linecap="round"/>
<path d="M19.1284 4.88595C19.1284 4.88595 19.8969 5.27695 20.219 4.92652C20.5129 4.60688 20.1731 4.108 20.5286 3.85872C20.8179 3.65588 21.4306 3.78949 21.4306 3.78949" stroke="#FE8C00" stroke-width="0.317647" stroke-linecap="round"/>
<rect x="18.8024" y="8.76471" width="0.741176" height="0.741176" rx="0.211765" fill="#FE8C00"/>
<path d="M10.2626 7.65292C10.7815 7.438 11.3645 7.438 11.8834 7.65292L13.6819 8.39792C14.2008 8.61285 14.6131 9.0251 14.828 9.54398L15.573 11.3426C15.7879 11.8614 15.7879 12.4444 15.573 12.9633L14.828 14.7619C14.6131 15.2808 14.2008 15.693 13.6819 15.908L11.8834 16.653C11.3645 16.8679 10.7815 16.8679 10.2626 16.653L8.46401 15.908C7.94513 15.693 7.53288 15.2808 7.31795 14.7619L6.57295 12.9633C6.35802 12.4444 6.35802 11.8614 6.57295 11.3426L7.31795 9.54398C7.53288 9.0251 7.94513 8.61285 8.46401 8.39792L10.2626 7.65292Z" fill="#F5F5FF" stroke="#FE8C00" stroke-width="0.847059"/>
<path fill-rule="evenodd" clip-rule="evenodd" d="M12.3309 10.8696C12.3901 10.8109 12.4702 10.7778 12.5536 10.7776C12.6371 10.7774 12.7173 10.81 12.7769 10.8684C12.8365 10.9268 12.8707 11.0064 12.8721 11.0898C12.8735 11.1733 12.842 11.2539 12.7845 11.3144L11.0937 13.4278C11.0647 13.4591 11.0296 13.4842 10.9906 13.5016C10.9516 13.5191 10.9095 13.5284 10.8668 13.5292C10.8241 13.53 10.7817 13.5222 10.7421 13.5062C10.7025 13.4902 10.6665 13.4664 10.6363 13.4362L9.51609 12.3156C9.48488 12.2865 9.45985 12.2514 9.44249 12.2125C9.42513 12.1735 9.4158 12.1314 9.41504 12.0888C9.41429 12.0461 9.42214 12.0038 9.43811 11.9642C9.45409 11.9247 9.47787 11.8887 9.50803 11.8586C9.53819 11.8284 9.57412 11.8046 9.61368 11.7887C9.65323 11.7727 9.69559 11.7648 9.73824 11.7656C9.78089 11.7663 9.82296 11.7757 9.86192 11.793C9.90089 11.8104 9.93595 11.8354 9.96503 11.8666L10.8519 12.7531L12.3228 10.879C12.3254 10.8757 12.3283 10.8726 12.3313 10.8696H12.3309Z" fill="#FE8C00"/>
</svg>
